<svg xmlns="http://www.w3.org/2000/svg" viewBox="0 0 58.92 45.39"><defs><style>.cls-1{fill:#d1181f}.cls-2{fill:#a42f23}</style></defs><g id="Layer_2" data-name="Layer 2"><g id="Layer_3_copy" data-name="Layer 3 copy"><path class="cls-1" d="M55.31 1.92c-4.84-.77-7.31 1.24-9.41 4.2a20.82 20.82 0 00-2.9 6.63c-2.4 8-3.12 11.71-5.13 17.94-1.28 3.92-3.87 4.46-4.87 4.63a24 24 0 01-7.12.07c1.53-.67 1.95-2.26 2.61-4.43a77.67 77.67 0 002.13-8.9c.63-3.27 2.24-9.36 3.39-13.23 1.21-4.26 4.35-7.33 9.51-8.44 4.62-1 9.58.08 11.79 1.53z"/><path class="cls-2" d="M29.31 23.87s1.62-8.21 2.46-11.08l-2.13-5.95-2.39 6c.23 1 .51 2.42.83 4.18l1.23 6.85z"/><path d="M26.07 41.06c2.52-1.52 9.31-5.8 15.72-5.27 7.25.6 14.11 6 17.05 8.47.23.19 0 .85-1.58.91-6.63.24-10.45.23-12.95.22-3 0-4.87-1.23-5.12-3a2.73 2.73 0 011.1-2.39 2.22 2.22 0 011.71-.43c.14 0 1 .19 1.23.88a1 1 0 01-.35 1 .77.77 0 01-1 0c-.8-.53-1.07-.11-1.1 0a1.91 1.91 0 00.66 1.92 2.52 2.52 0 002.89.18 4.46 4.46 0 001.22-1.36 1.12 1.12 0 011.45-.26 4.93 4.93 0 001.13.44c.56.14 1.2-.39.48-1.18a29.43 29.43 0 00-3.51-2.89 6.8 6.8 0 00-8.05.62c-1.19.94-1.88 1.77-3.32 3.1a6.94 6.94 0 01-4 1.75c-.35.06-3 .26-4.06-.79a1.2 1.2 0 01.4-1.92z" fill="#1a6dae"/><path d="M13.82 38.3a6.8 6.8 0 018.05.62A22 22 0 0124 40.81a.75.75 0 001 0 18.42 18.42 0 012.34-1.63.74.74 0 00-.06-1.31 20.9 20.9 0 00-10.13-2.12c-7.24.71-14.11 6-17 8.47-.23.19 0 .85 1.58.91 6.63.24 10.44.23 13 .22 3 0 4.87-1.23 5.11-3A2.69 2.69 0 0018.63 40a2.22 2.22 0 00-1.63-.43c-.14 0-1 .19-1.23.88a1 1 0 00.35 1 .77.77 0 001.05 0c.8-.53 1.07-.11 1.1 0a1.91 1.91 0 01-.66 1.92 2.52 2.52 0 01-2.89.18 4.46 4.46 0 01-1.22-1.36 1.13 1.13 0 00-1.58-.31 4.93 4.93 0 01-1.13.44c-.56.14-1.2-.39-.49-1.18a29.37 29.37 0 013.52-2.84z" fill="#2063a5"/><path class="cls-2" d="M14.47 8.53a2.1 2.1 0 00-2 2.15.86.86 0 000 .16h3.36a6.27 6.27 0 00-1.36-2.31z"/><path class="cls-1" d="M15.15 8.35a72.59 72.59 0 017.44.26 3.33 3.33 0 012.83 2.16c.9 2.07 1.18 3 2.16 8.55.72 4.1 1.2 6.72 1.2 6.72s-1 3.6-1.26 4.76c-.52 2.13-1.35 4.2-3.13 4.35a5.27 5.27 0 01-2.74-1.88c-1.12-1.83-1.75-3.79-2.48-9.72-.54-4.36-1.18-7.11-1.6-9.37s-1.21-4.87-2.42-5.83z"/></g></g></svg>